name GIL04_slow3.mot
datacolumns 153
datarows 4
range 0.13333334 0.15833333
endheader

                time	           pelvis_tx	           pelvis_ty	           pelvis_tz	         pelvis_tilt	         pelvis_list	     pelvis_rotation	       hip_flexion_r	     hip_adduction_r	      hip_rotation_r	        knee_angle_r	       ankle_angle_r	    subtalar_angle_r	         mtp_angle_r	       hip_flexion_l	     hip_adduction_l	      hip_rotation_l	        knee_angle_l	       ankle_angle_l	    subtalar_angle_l	         mtp_angle_l	    lumbar_extension	      lumbar_bending	     lumbar_rotation	     ground_force_vx	     ground_force_vy	     ground_force_vz	     ground_force_px	     ground_force_py	     ground_force_pz	     ground_force_vx	     ground_force_vy	     ground_force_vz	     ground_force_px	     ground_force_py	     ground_force_pz	     ground_torque_x	     ground_torque_y	     ground_torque_z	     ground_torque_x	     ground_torque_y	     ground_torque_z	    ground_marker_px	    ground_marker_py	    ground_marker_pz	    ground_marker_px	    ground_marker_py	    ground_marker_pz	    ground_marker_px	    ground_marker_py	    ground_marker_pz	    ground_marker_px	    ground_marker_py	    ground_marker_pz	    ground_marker_px	    ground_marker_py	    ground_marker_pz	    ground_marker_px	    ground_marker_py	    ground_marker_pz	    ground_marker_px	    ground_marker_py	    ground_marker_pz	    ground_marker_px	    ground_marker_py	    ground_marker_pz	    ground_marker_px	    ground_marker_py	    ground_marker_pz	    ground_marker_px	    ground_marker_py	    ground_marker_pz	    ground_marker_px	    ground_marker_py	    ground_marker_pz	    ground_marker_px	    ground_marker_py	    ground_marker_pz	    ground_marker_px	    ground_marker_py	    ground_marker_pz	    ground_marker_px	    ground_marker_py	    ground_marker_pz	    ground_marker_px	    ground_marker_py	    ground_marker_pz	    ground_marker_px	    ground_marker_py	    ground_marker_pz	    ground_marker_px	    ground_marker_py	    ground_marker_pz	    ground_marker_px	    ground_marker_py	    ground_marker_pz	    ground_marker_px	    ground_marker_py	    ground_marker_pz	    ground_marker_px	    ground_marker_py	    ground_marker_pz	    ground_marker_px	    ground_marker_py	    ground_marker_pz	    ground_marker_px	    ground_marker_py	    ground_marker_pz	    ground_marker_px	    ground_marker_py	    ground_marker_pz	    ground_marker_px	    ground_marker_py	    ground_marker_pz	    ground_marker_px	    ground_marker_py	    ground_marker_pz	    ground_marker_px	    ground_marker_py	    ground_marker_pz	    ground_marker_px	    ground_marker_py	    ground_marker_pz	    ground_marker_px	    ground_marker_py	    ground_marker_pz	    ground_marker_px	    ground_marker_py	    ground_marker_pz	    ground_marker_px	    ground_marker_py	    ground_marker_pz	    ground_marker_px	    ground_marker_py	    ground_marker_pz	    ground_marker_px	    ground_marker_py	    ground_marker_pz	    ground_marker_px	    ground_marker_py	    ground_marker_pz	    ground_marker_px	    ground_marker_py	    ground_marker_pz	    ground_marker_px	    ground_marker_py	    ground_marker_pz	    ground_marker_px	    ground_marker_py	    ground_marker_pz	    ground_marker_px	    ground_marker_py	    ground_marker_pz	
          0.13333334	          0.13048236	          0.74270022	         -0.22033882	         -2.38662910	         -3.78285384	         -1.04067588	         23.86609650	         10.50411797	          2.87785053	        -19.67270470	         -1.67875922	          0.00000000	          0.00000000	        -11.66735935	         -2.46216989	        -10.80683804	        -32.60828018	        -18.86391258	          0.00000000	          0.00000000	        -13.28250122	          5.63695431	          1.10204554	        -43.81221044	        298.48395127	         -8.47967514	          0.20037642	          0.00000000	         -0.19095866	          0.00000000	          0.00000000	          0.00000000	          0.56749500	          0.00000000	         -0.27899225	          0.00000000	         -0.58933368	          0.00000000	          0.00000000	          0.00000000	          0.00000000	          0.07229917	          0.67253166	         -0.21639159	          0.06427257	          0.68409288	         -0.15333776	          0.06442393	          0.67548513	         -0.27887180	          0.18007365	          0.38715985	         -0.19149372	         -0.01222948	          0.36826307	         -0.27153665	          0.19272323	          0.05590043	         -0.19024460	         -0.25038546	          0.14633912	         -0.26577428	          0.13048236	          0.74270022	         -0.22033882	          0.13036862	          0.74916887	         -0.12600084	          0.13059610	          0.73623157	         -0.31467682	         -0.01468421	          0.78289545	         -0.19934367	         -0.01736604	          0.77682585	         -0.25363556	          0.18574448	          0.38294598	         -0.14149037	         -0.02075482	          0.36921412	         -0.32079530	          0.17627360	          0.38237691	         -0.24140029	          0.00685822	          0.35966912	         -0.21345809	          0.19162053	          0.05598457	         -0.15676285	         -0.25764191	          0.15326923	         -0.29878286	          0.18972115	          0.06586713	         -0.21618910	         -0.24930777	          0.15795146	         -0.23821230	          0.02075224	          1.12776756	         -0.21625057	          0.09957910	          1.08124065	         -0.15090975	          0.10066714	          1.08530796	         -0.27991357	          0.09454843	          1.07183826	         -0.21839768	          0.11591773	          0.92946827	         -0.22195280	          0.16351570	          0.45811638	         -0.05433784	          0.14071642	          0.44001758	         -0.33087215	          0.17133129	          0.53120130	         -0.11640443	          0.09895124	          0.50574303	         -0.26154506	          0.20585231	          0.45805416	         -0.14099990	          0.06803444	          0.42433056	         -0.25084573	          0.18466321	          0.15704188	         -0.08194978	         -0.12466078	          0.15440758	         -0.31805176	          0.18526112	          0.21328777	         -0.14122705	         -0.12059245	          0.23406473	         -0.29336664	          0.28976136	          0.03903025	         -0.19722614	         -0.22927855	          0.05675389	         -0.25695574	
          0.14166667	          0.13868132	          0.74386322	         -0.21978495	         -2.35792828	         -3.69236684	         -1.00058591	         23.36248016	         10.41587257	          2.20526433	        -20.07061768	         -0.80885541	          0.00000000	          0.00000000	        -10.20603371	         -2.91091514	        -11.12762165	        -35.34530640	        -19.05672646	          0.00000000	          0.00000000	        -13.22064400	          5.47472811	          1.03766310	        -40.98049901	        302.61783922	         -8.08747610	          0.20168286	          0.00000000	         -0.19098398	          0.00000000	          0.00000000	          0.00000000	          0.56831390	          0.00000000	         -0.27887234	          0.00000000	         -0.51606268	          0.00000000	          0.00000000	          0.00000000	          0.00000000	          0.08052421	          0.67368090	         -0.21592680	          0.07251728	          0.68511170	         -0.15286502	          0.07263681	          0.67671782	         -0.27841356	          0.18583925	          0.38737267	         -0.19098721	          0.00391335	          0.36712348	         -0.27392271	          0.19306703	          0.05579644	         -0.19018099	         -0.23865199	          0.15057893	         -0.26791286	          0.13868132	          0.74386322	         -0.21978495	          0.13859147	          0.75017238	         -0.12541816	          0.13877116	          0.73755407	         -0.31415173	         -0.00643907	          0.78404570	         -0.19856435	         -0.00930628	          0.77791512	         -0.25291935	          0.19088049	          0.38288346	         -0.14094040	         -0.00491922	          0.36837047	         -0.32312056	          0.18217561	          0.38264787	         -0.24089369	          0.02408363	          0.35717684	         -0.21680678	          0.19173501	          0.05584880	         -0.15670753	         -0.24567541	          0.15752894	         -0.30096769	          0.18989316	          0.06578486	         -0.21624321	         -0.23747984	          0.16313607	         -0.24055991	          0.02884879	          1.12900066	         -0.21596238	          0.10763636	          1.08265376	         -0.15040505	          0.10871916	          1.08655953	         -0.27966419	          0.10273569	          1.07316983	         -0.21810076	          0.12408416	          0.93080372	         -0.22137366	          0.16831447	          0.45797566	         -0.05375148	          0.15469065	          0.44250470	         -0.33344948	          0.17778854	          0.53075325	         -0.11510964	          0.11189499	          0.50627685	         -0.26361442	          0.21150155	          0.45735428	         -0.13964397	          0.08325811	          0.42392209	         -0.25374144	          0.18591385	          0.15692924	         -0.08177896	         -0.11272883	          0.15562564	         -0.31992027	          0.18745434	          0.21305829	         -0.14113231	         -0.10674361	          0.23509836	         -0.29545888	          0.28990677	          0.03884558	         -0.19713099	         -0.21972586	          0.06037975	         -0.25861120	
          0.15000001	          0.14673424	          0.74497914	         -0.21926026	         -2.35105801	         -3.58153200	         -0.96845484	         22.83428955	         10.30015182	          1.54287529	        -20.35184097	          0.00044892	          0.00000000	          0.00000000	         -8.66285801	         -3.32227302	        -11.56189823	        -38.06304550	        -18.79382324	          0.00000000	          0.00000000	        -13.18560123	          5.31032801	          1.04852414	        -38.19539085	        305.80446551	         -7.81906071	          0.20360326	          0.00000000	         -0.19094995	          0.00000000	          0.00000000	          0.00000000	          0.56919238	          0.00000000	         -0.27874597	          0.00000000	         -0.42327789	          0.00000000	          0.00000000	          0.00000000	          0.00000000	          0.08846593	          0.67482382	         -0.21550721	          0.08057935	          0.68608749	         -0.15245457	          0.08069172	          0.67794627	         -0.27801979	          0.19118434	          0.38749990	         -0.19045489	          0.02029923	          0.36620069	         -0.27630258	          0.19339620	          0.05570603	         -0.19011520	         -0.22630477	          0.15480867	         -0.26989871	          0.14673424	          0.74497914	         -0.21926026	          0.14664975	          0.75109994	         -0.12485623	          0.14681873	          0.73885840	         -0.31366429	          0.00157731	          0.78522336	         -0.19782948	         -0.00134369	          0.77901167	         -0.25224131	          0.19557634	          0.38275278	         -0.14037070	          0.01104617	          0.36772269	         -0.32541534	          0.18823822	          0.38293037	         -0.24042425	          0.04155416	          0.35528892	         -0.21986733	          0.19181035	          0.05572971	         -0.15665278	         -0.23307292	          0.16170086	         -0.30301881	          0.19000083	          0.06573800	         -0.21628712	         -0.22500718	          0.16817215	         -0.24274451	          0.03688848	          1.13023639	         -0.21566376	          0.11581647	          1.08397532	         -0.15029527	          0.11676162	          1.08778334	         -0.27932519	          0.11080861	          1.07445216	         -0.21782888	          0.13229966	          0.93208337	         -0.22105668	          0.17272171	          0.45777825	         -0.05318280	          0.16853517	          0.44517133	         -0.33627090	          0.18340100	          0.53057629	         -0.11395614	          0.12512545	          0.50701618	         -0.26597703	          0.21689819	          0.45678955	         -0.13846435	          0.09866428	          0.42387718	         -0.25668284	          0.18694621	          0.15680446	         -0.08160330	         -0.10016499	          0.15689911	         -0.32152542	          0.18926415	          0.21282992	         -0.14104623	         -0.09240859	          0.23623292	         -0.29726222	          0.29002774	          0.03869468	         -0.19701521	         -0.20882978	          0.06412411	         -0.26057988	
          0.15833333	          0.15465286	          0.74606001	         -0.21875302	         -2.35786819	         -3.45765901	         -0.95402139	         22.27048492	         10.17371082	          0.96117175	        -20.52465630	          0.75148225	          0.00000000	          0.00000000	         -7.06931925	         -3.70205569	        -12.07594109	        -40.70968628	        -18.12999725	          0.00000000	          0.00000000	        -13.15902233	          5.11486483	          1.07209837	        -36.05885738	        306.98271722	         -7.80334685	          0.20612978	          0.00000000	         -0.19084485	          0.00000000	          0.00000000	          0.00000000	          0.57020288	          0.00000000	         -0.27864651	          0.00000000	         -0.32054364	          0.00000000	          0.00000000	          0.00000000	          0.00000000	          0.09617084	          0.67596352	         -0.21513399	          0.08847054	          0.68703324	         -0.15209387	          0.08861855	          0.67916292	         -0.27767631	          0.19610804	          0.38755527	         -0.18991590	          0.03683240	          0.36554426	         -0.27864701	          0.19369033	          0.05563117	         -0.19004671	         -0.21334718	          0.15891147	         -0.27172351	          0.15465286	          0.74606001	         -0.21875302	          0.15454155	          0.75197917	         -0.12430420	          0.15476418	          0.74014080	         -0.31320184	          0.00937816	          0.78641397	         -0.19719124	          0.00653394	          0.78010023	         -0.25164452	          0.19988742	          0.38258478	         -0.13980342	          0.02708552	          0.36730540	         -0.32765615	          0.19464250	          0.38227123	         -0.23930386	          0.05862113	          0.35423928	         -0.22254428	          0.19186082	          0.05563132	         -0.15659669	         -0.21986829	          0.16569471	         -0.30491558	          0.19011377	          0.06579544	         -0.21627060	         -0.21184467	          0.17287117	         -0.24471539	          0.04481360	          1.13147497	         -0.21539371	          0.12390982	          1.08526242	         -0.15013270	          0.12472191	          1.08893609	         -0.27911267	          0.11877160	          1.07569146	         -0.21759172	          0.14037208	          0.93330234	         -0.22072679	          0.17687698	          0.45759580	         -0.05264496	          0.18224540	          0.44801885	         -0.33920878	          0.18736282	          0.53057098	         -0.11326729	          0.13846138	          0.50805354	         -0.26844177	          0.22186187	          0.45632741	         -0.13736758	          0.11384311	          0.42426306	         -0.25948086	          0.18785805	          0.15667669	         -0.08142214	         -0.08699547	          0.15822478	         -0.32294944	          0.19094449	          0.21273272	         -0.14086191	         -0.07775405	          0.23747982	         -0.29876685	          0.29013422	          0.03857097	         -0.19688196	         -0.19660191	          0.06785540	         -0.26288164	
